<svg width="27" height="27" viewBox="0 0 27 27" fill="none" xmlns="http://www.w3.org/2000/svg">
<path d="M13.5 16.8582C11.6361 16.8582 10.125 18.3692 10.125 20.2332V26.9832H16.875V20.2332C16.875 18.3692 15.3639 16.8582 13.5 16.8582Z" fill="white"/>
<path d="M19.125 20.2332V26.9832H23.625C25.4889 26.9832 27 25.4721 27 23.6082V13.3471C27.0003 12.7626 26.7731 12.201 26.3666 11.7811L16.8064 1.44567C15.1195 -0.379466 12.2725 -0.491527 10.4474 1.19534C10.3607 1.2755 10.2771 1.35898 10.197 1.44567L0.653643 11.7777C0.234826 12.1994 -0.000158123 12.7696 7.98308e-08 13.364V23.6082C7.98308e-08 25.4721 1.51105 26.9832 3.375 26.9832H7.87498V20.2332C7.89602 17.1655 10.3728 14.6604 13.3632 14.5883C16.4537 14.5137 19.1014 17.0615 19.125 20.2332Z" fill="white"/>
<path d="M13.5 16.8584C11.6361 16.8584 10.125 18.3694 10.125 20.2334V26.9834H16.875V20.2334C16.875 18.3694 15.3639 16.8584 13.5 16.8584Z" fill="white"/>
</svg>
