<svg width="27" height="26" viewBox="0 0 27 26" fill="none" xmlns="http://www.w3.org/2000/svg">
<path d="M8.20463 7.71442C7.76475 7.29083 7.76475 6.60617 8.20463 6.18258C8.6445 5.759 9.3555 5.759 9.79537 6.18258L12.375 8.66667V1.08333C12.375 0.48425 12.8779 0 13.5 0C14.1221 0 14.625 0.48425 14.625 1.08333V8.66667L17.2046 6.18258C17.6445 5.759 18.3555 5.759 18.7954 6.18258C19.2353 6.60617 19.2353 7.29083 18.7954 7.71442L15.0907 11.2818C14.6554 11.7011 14.0827 11.9123 13.5101 11.9145L13.5 11.9167L13.4899 11.9145C12.9173 11.9123 12.3446 11.7011 11.9093 11.2818L8.20463 7.71442V7.71442ZM23.625 13H20.25C19.0091 13 18 13.9718 18 15.1667C18 16.3616 16.9909 17.3333 15.75 17.3333H11.25C10.0091 17.3333 9 16.3616 9 15.1667C9 13.9718 7.99088 13 6.75 13H3.375C1.51425 13 0 14.4582 0 16.25V20.5833C0 23.5701 2.52338 26 5.625 26H21.375C24.4766 26 27 23.5701 27 20.5833V16.25C27 14.4582 25.4858 13 23.625 13Z" fill="white"/>
</svg>
