<svg width="27" height="26" viewBox="0 0 27 26" fill="none" xmlns="http://www.w3.org/2000/svg">
<g clip-path="url(#clip0_57_331)">
<path d="M27 13C27 15.5712 26.2082 18.0846 24.7248 20.2224C23.2414 22.3603 21.133 24.0265 18.6662 25.0104C16.1994 25.9944 13.485 26.2518 10.8663 25.7502C8.24754 25.2486 5.84207 24.0105 3.95406 22.1924C2.06606 20.3743 0.780305 18.0579 0.259405 15.5362C-0.261496 13.0144 0.00584936 10.4006 1.02763 8.02512C2.04942 5.64968 3.77974 3.61935 5.99981 2.1909C8.21987 0.762437 10.83 0 13.5 0C17.0792 0.00372784 20.5108 1.37456 23.0417 3.81173C25.5726 6.24889 26.9961 9.55333 27 13ZM15.75 13C15.75 12.4254 15.513 11.8743 15.091 11.4679C14.669 11.0616 14.0967 10.8333 13.5 10.8333H11.25V13H13.5V20.5833H15.75V13ZM13.5 5.41667C13.1663 5.41667 12.84 5.51197 12.5625 5.69053C12.285 5.86909 12.0687 6.12288 11.941 6.41981C11.8132 6.71674 11.7798 7.04347 11.8449 7.35869C11.91 7.67391 12.0708 7.96346 12.3068 8.19072C12.5428 8.41798 12.8434 8.57274 13.1708 8.63544C13.4981 8.69814 13.8374 8.66596 14.1458 8.54297C14.4541 8.41998 14.7177 8.2117 14.9031 7.94447C15.0885 7.67724 15.1875 7.36306 15.1875 7.04167C15.1875 6.61069 15.0097 6.19736 14.6932 5.89262C14.3768 5.58787 13.9476 5.41667 13.5 5.41667Z" fill="white"/>
</g>
<defs>
<clipPath id="clip0_57_331">
<rect width="27" height="26" fill="white"/>
</clipPath>
</defs>
</svg>
