<svg width="27" height="26" viewBox="0 0 27 26" fill="none" xmlns="http://www.w3.org/2000/svg">
<g clip-path="url(#clip0_57_339)">
<path d="M13.5001 0.0458984C10.5233 0.0490521 7.66932 1.18911 5.56429 3.21598C3.45925 5.24285 2.27506 7.991 2.27148 10.8576C2.27148 13.6417 4.51023 17.9989 8.92586 23.8077C9.45153 24.5012 10.1398 25.0654 10.9347 25.4543C11.7295 25.8432 12.6085 26.0459 13.5001 26.0459C14.3917 26.0459 15.2707 25.8432 16.0656 25.4543C16.8604 25.0654 17.5487 24.5012 18.0744 23.8077C22.49 17.9989 24.7287 13.6417 24.7287 10.8576C24.7252 7.991 23.541 5.24285 21.4359 3.21598C19.3309 1.18911 16.4769 0.0490521 13.5001 0.0458984V0.0458984ZM13.5001 15.1671C12.6101 15.1671 11.7401 14.9129 11 14.4368C10.26 13.9606 9.68325 13.2838 9.34265 12.492C9.00206 11.7002 8.91294 10.8289 9.08658 9.98834C9.26021 9.14776 9.68879 8.37563 10.3181 7.7696C10.9475 7.16358 11.7493 6.75087 12.6222 6.58366C13.4951 6.41646 14.3999 6.50228 15.2222 6.83026C16.0445 7.15823 16.7473 7.71365 17.2417 8.42626C17.7362 9.13888 18.0001 9.97668 18.0001 10.8337C18.0001 11.983 17.526 13.0852 16.6821 13.8979C15.8382 14.7105 14.6936 15.1671 13.5001 15.1671Z" fill="white"/>
</g>
<defs>
<clipPath id="clip0_57_339">
<rect width="27" height="26" fill="white"/>
</clipPath>
</defs>
</svg>
