<svg width="27" height="26" viewBox="0 0 27 26" fill="none" xmlns="http://www.w3.org/2000/svg">
<g clip-path="url(#clip0_57_333)">
<path d="M12.5125 13.5806C12.199 13.2786 11.8269 13.039 11.4173 12.8755C11.0077 12.7121 10.5686 12.6279 10.1252 12.6279C9.68183 12.6279 9.24278 12.7121 8.83316 12.8755C8.42355 13.039 8.0514 13.2786 7.73797 13.5806L0.0429688 20.9906C0.146987 22.3492 0.77974 23.6199 1.8147 24.5486C2.84966 25.4774 4.21054 25.9957 5.62522 25.9999H21.3752C22.4774 25.9997 23.5549 25.6857 24.4723 25.0975L12.5125 13.5806Z" fill="white"/>
<path d="M20.25 8.66634C21.4926 8.66634 22.5 7.69629 22.5 6.49967C22.5 5.30306 21.4926 4.33301 20.25 4.33301C19.0074 4.33301 18 5.30306 18 6.49967C18 7.69629 19.0074 8.66634 20.25 8.66634Z" fill="white"/>
<path d="M21.375 0H5.625C4.13371 0.00172018 2.704 0.572955 1.6495 1.5884C0.594992 2.60385 0.00178634 3.98061 0 5.41667L0 17.9682L6.147 12.0488C6.66935 11.5457 7.28951 11.1466 7.97206 10.8743C8.65462 10.602 9.38619 10.4618 10.125 10.4618C10.8638 10.4618 11.5954 10.602 12.2779 10.8743C12.9605 11.1466 13.5807 11.5457 14.103 12.0488L26.0629 23.5658C26.6737 22.6823 26.9998 21.6447 27 20.5833V5.41667C26.9982 3.98061 26.405 2.60385 25.3505 1.5884C24.296 0.572955 22.8663 0.00172018 21.375 0V0ZM20.25 10.8333C19.36 10.8333 18.49 10.5792 17.7499 10.103C17.0099 9.62688 16.4331 8.95011 16.0925 8.1583C15.7519 7.36648 15.6628 6.49519 15.8365 5.65461C16.0101 4.81402 16.4387 4.0419 17.068 3.43587C17.6974 2.82984 18.4992 2.41713 19.3721 2.24993C20.245 2.08273 21.1498 2.16854 21.9721 2.49652C22.7943 2.8245 23.4971 3.37992 23.9916 4.09253C24.4861 4.80514 24.75 5.64295 24.75 6.5C24.75 7.64927 24.2759 8.75147 23.432 9.56413C22.5881 10.3768 21.4435 10.8333 20.25 10.8333Z" fill="white"/>
</g>
<defs>
<clipPath id="clip0_57_333">
<rect width="27" height="26" fill="white"/>
</clipPath>
</defs>
</svg>
