<svg width="27" height="26" viewBox="0 0 27 26" fill="none" xmlns="http://www.w3.org/2000/svg">
<path d="M21.375 0H5.625C2.52338 0 0 2.42992 0 5.41667V20.5833C0 23.5701 2.52338 26 5.625 26H21.375C24.4766 26 27 23.5701 27 20.5833V5.41667C27 2.42992 24.4766 0 21.375 0ZM13.5 20.5833C12.5685 20.5833 11.8125 19.8553 11.8125 18.9583C11.8125 18.0613 12.5685 17.3333 13.5 17.3333C14.4315 17.3333 15.1875 18.0613 15.1875 18.9583C15.1875 19.8553 14.4315 20.5833 13.5 20.5833ZM15.669 13.5287C15.0829 13.8396 14.625 14.56 14.625 15.1667C14.625 15.7658 14.121 16.25 13.5 16.25C12.879 16.25 12.375 15.7658 12.375 15.1667C12.375 13.7757 13.2829 12.3218 14.5834 11.6307C15.4418 11.1757 15.885 10.2722 15.7129 9.32858C15.5576 8.476 14.8016 7.74908 13.9174 7.59958C13.2356 7.48367 12.573 7.6505 12.0544 8.07083C11.5425 8.48358 11.25 9.08917 11.25 9.73158C11.25 10.3296 10.746 10.8149 10.125 10.8149C9.504 10.8149 9 10.3296 9 9.73158C9 8.44783 9.58612 7.23775 10.6076 6.41225C11.6291 5.58675 12.9802 5.2455 14.3055 5.4665C16.1201 5.772 17.6108 7.20633 17.9291 8.95483C18.2644 10.7954 17.3565 12.6328 15.669 13.5287Z" fill="white"/>
</svg>
