<svg width="27" height="26" viewBox="0 0 27 26" fill="none" xmlns="http://www.w3.org/2000/svg">
<g clip-path="url(#clip0_57_359)">
<path d="M13.5 0C10.1762 0.0022819 6.97065 1.18801 4.5 3.32908V1.08333C4.5 0.796016 4.38147 0.520465 4.1705 0.317301C3.95952 0.114137 3.67337 0 3.375 0C3.07663 0 2.79048 0.114137 2.5795 0.317301C2.36853 0.520465 2.25 0.796016 2.25 1.08333V4.33333C2.25 5.19529 2.60558 6.02194 3.23851 6.63143C3.87145 7.24092 4.72989 7.58333 5.625 7.58333H9C9.29837 7.58333 9.58452 7.4692 9.7955 7.26603C10.0065 7.06287 10.125 6.78732 10.125 6.5C10.125 6.21268 10.0065 5.93713 9.7955 5.73397C9.58452 5.5308 9.29837 5.41667 9 5.41667H5.625C5.58706 5.41125 5.54949 5.40366 5.5125 5.39392C7.34571 3.61598 9.76289 2.50583 12.3514 2.25297C14.94 2.00011 17.5395 2.62021 19.7061 4.00742C21.8727 5.39464 23.4722 7.46297 24.2316 9.85936C24.9909 12.2558 24.8631 14.8317 23.8698 17.1474C22.8765 19.4631 21.0794 21.375 18.7852 22.5569C16.491 23.7388 13.842 24.1172 11.2903 23.6277C8.73859 23.1382 6.44241 21.8111 4.79369 19.8729C3.14497 17.9346 2.24592 15.5055 2.25 13C2.25 12.7127 2.13147 12.4371 1.9205 12.234C1.70952 12.0308 1.42337 11.9167 1.125 11.9167C0.826631 11.9167 0.540483 12.0308 0.329505 12.234C0.118526 12.4371 0 12.7127 0 13C0 15.5712 0.791761 18.0846 2.27516 20.2224C3.75856 22.3603 5.86697 24.0265 8.33377 25.0104C10.8006 25.9944 13.515 26.2518 16.1337 25.7502C18.7525 25.2486 21.1579 24.0105 23.0459 22.1924C24.934 20.3743 26.2197 18.0579 26.7406 15.5362C27.2615 13.0144 26.9942 10.4006 25.9724 8.02512C24.9506 5.64968 23.2203 3.61935 21.0002 2.1909C18.7801 0.762437 16.17 0 13.5 0V0Z" fill="white"/>
<path d="M13.5 6.5C13.2016 6.5 12.9155 6.61414 12.7045 6.8173C12.4935 7.02047 12.375 7.29602 12.375 7.58333V13C12.3751 13.2873 12.4936 13.5628 12.7046 13.7659L16.0796 17.0159C16.2918 17.2133 16.576 17.3224 16.871 17.32C17.1659 17.3175 17.4481 17.2036 17.6567 17.0027C17.8653 16.8019 17.9836 16.5301 17.9861 16.2461C17.9887 15.9621 17.8753 15.6884 17.6704 15.4841L14.625 12.5515V7.58333C14.625 7.29602 14.5065 7.02047 14.2955 6.8173C14.0845 6.61414 13.7984 6.5 13.5 6.5Z" fill="white"/>
</g>
<defs>
<clipPath id="clip0_57_359">
<rect width="27" height="26" fill="white"/>
</clipPath>
</defs>
</svg>
